<svg width="332" height="80" viewBox="0 0 332 80" fill="none" xmlns="http://www.w3.org/2000/svg">
<g clip-path="url(#clip0)">
<path d="M64.7509 33.2411C64.1265 33.2411 63.5122 33.2832 62.9073 33.3567L59.106 20.3438C59.4773 19.9111 59.7029 19.3498 59.7029 18.735C59.7029 17.3688 58.5951 16.261 57.2289 16.261H47.0239C45.6577 16.261 44.5498 17.3688 44.5498 18.735C44.5498 20.1011 45.6577 21.209 47.0239 21.209H53.4872L50.8593 25.3918C50.7433 25.377 50.6243 25.3685 50.505 25.3718L28.4116 25.6922C28.9591 25.2384 29.3079 24.5531 29.3079 23.7867C29.3079 22.4205 28.2003 21.3126 26.8339 21.3126H20.874C19.5076 21.3126 18.4 22.4205 18.4 23.7867C18.4 25.1528 19.5076 26.2607 20.874 26.2607H21.3191C21.3785 26.4821 21.4683 26.6991 21.5935 26.9049L22.587 28.54L19.8448 33.9502C18.3938 33.4905 16.85 33.2409 15.2489 33.2409C6.84067 33.2411 1.52588e-05 40.0815 1.52588e-05 48.49C1.52588e-05 56.8984 6.84067 63.739 15.2489 63.739C22.5101 63.739 28.5979 58.6359 30.1251 51.8289L38.2839 52.3009C38.3319 52.3037 38.3797 52.3051 38.4272 52.3051C39.2745 52.3051 40.0674 51.8702 40.5217 51.147L55.8309 26.7792L58.1572 34.7421C53.0412 37.2057 49.5018 42.4422 49.5018 48.49C49.5018 56.8981 56.3425 63.739 64.7509 63.739C73.1594 63.739 80 56.8984 80 48.49C80 40.0815 73.1591 33.2411 64.7509 33.2411ZM25.6113 33.5177L33.8569 47.0884L30.4131 46.8893C29.9539 42.5078 27.6308 38.6745 24.2543 36.1946L25.6113 33.5177ZM4.94805 48.49C4.94805 42.8101 9.56901 38.1891 15.2489 38.1891C16.0442 38.1891 16.8179 38.2827 17.5618 38.4544L13.042 47.3717C12.6647 48.1159 12.688 49.0001 13.1041 49.7235C13.5203 50.4469 14.2729 50.9118 15.1059 50.96L25.0892 51.5377C23.7869 55.7346 19.8681 58.791 15.2489 58.791C9.56901 58.791 4.94805 54.17 4.94805 48.49ZM19.1637 46.2381L21.9727 40.6961C23.706 42.1936 24.9359 44.2569 25.3725 46.5973L19.1637 46.2381ZM38.4576 45.1315L29.6419 30.6229L47.7374 30.3604L38.4576 45.1315ZM64.7509 58.791C59.0708 58.791 54.4499 54.17 54.4499 48.49C54.4499 44.6965 56.5125 41.3779 59.5736 39.5904L62.3761 49.1837C62.7596 50.4954 64.1342 51.2482 65.4444 50.8648C66.7561 50.4815 67.5087 49.1077 67.1255 47.7965L64.3222 38.2003C64.4644 38.1943 64.6072 38.1894 64.7509 38.1894C70.431 38.1894 75.052 42.8104 75.052 48.4902C75.052 54.17 70.431 58.791 64.7509 58.791Z" fill="#FEC601"/>
</g>
<path d="M119.453 26.5625V45.1758C119.453 47.2852 119.004 49.1146 118.105 50.6641C117.207 52.2005 115.918 53.3724 114.238 54.1797C112.559 54.987 110.573 55.3906 108.281 55.3906C104.818 55.3906 102.09 54.4922 100.098 52.6953C98.1055 50.8984 97.0898 48.4375 97.0508 45.3125V26.5625H103.945V45.4492C104.023 48.5612 105.469 50.1172 108.281 50.1172C109.701 50.1172 110.775 49.7266 111.504 48.9453C112.233 48.1641 112.598 46.8945 112.598 45.1367V26.5625H119.453ZM145.66 43.6719H134.605V55H127.75V26.5625H146.773V31.8555H134.605V38.3984H145.66V43.6719ZM211.469 55V26.5625H221.684C225.342 26.5625 228.122 27.2331 230.023 28.5742C231.938 29.9154 232.895 31.862 232.895 34.4141C232.895 35.8854 232.556 37.1419 231.879 38.1836C231.202 39.2253 230.206 39.9935 228.891 40.4883C230.375 40.8789 231.514 41.6081 232.309 42.6758C233.103 43.7435 233.5 45.0456 233.5 46.582C233.5 49.3685 232.615 51.4648 230.844 52.8711C229.086 54.2643 226.475 54.974 223.012 55H211.469ZM218.324 42.9102V49.7266H222.816C224.053 49.7266 225.004 49.4466 225.668 48.8867C226.332 48.3138 226.664 47.513 226.664 46.4844C226.664 44.1146 225.486 42.9232 223.129 42.9102H218.324ZM218.324 38.418H221.898C223.396 38.4049 224.464 38.1315 225.102 37.5977C225.74 37.0638 226.059 36.276 226.059 35.2344C226.059 34.0365 225.714 33.1771 225.023 32.6562C224.333 32.1224 223.22 31.8555 221.684 31.8555H218.324V38.418ZM248.594 55H241.758V26.5625H248.594V55ZM267.027 44.4141L264.215 47.5V55H257.359V26.5625H264.215V39.1016L266.598 35.4883L272.73 26.5625H281.207L271.598 39.1406L281.207 55H273.082L267.027 44.4141ZM304.582 42.9492H293.801V49.7266H306.535V55H286.945V26.5625H306.574V31.8555H293.801V37.8516H304.582V42.9492Z" fill="white"/>
<path d="M153.625 55V26.5625H163.84C167.499 26.5625 170.279 27.2331 172.18 28.5742C174.094 29.9154 175.051 31.862 175.051 34.4141C175.051 35.8854 174.712 37.1419 174.035 38.1836C173.358 39.2253 172.362 39.9935 171.047 40.4883C172.531 40.8789 173.671 41.6081 174.465 42.6758C175.259 43.7435 175.656 45.0456 175.656 46.582C175.656 49.3685 174.771 51.4648 173 52.8711C171.242 54.2643 168.632 54.974 165.168 55H153.625ZM160.48 42.9102V49.7266H164.973C166.21 49.7266 167.16 49.4466 167.824 48.8867C168.488 48.3138 168.82 47.513 168.82 46.4844C168.82 44.1146 167.642 42.9232 165.285 42.9102H160.48ZM160.48 38.418H164.055C165.552 38.4049 166.62 38.1315 167.258 37.5977C167.896 37.0638 168.215 36.276 168.215 35.2344C168.215 34.0365 167.87 33.1771 167.18 32.6562C166.49 32.1224 165.376 31.8555 163.84 31.8555H160.48V38.418ZM192.762 38.9062L197.996 26.5625H205.398L196.238 44.7852V55H189.285V44.7852L180.145 26.5625H187.508L192.762 38.9062Z" fill="#FEC601"/>
<defs>
<clipPath id="clip0">
<rect width="80" height="80" fill="white"/>
</clipPath>
</defs>
</svg>
